<svg width="24" height="24" viewBox="0 0 24 24" fill="none" xmlns="http://www.w3.org/2000/svg">
<path d="M20.944 18.432C20.9343 18.7771 20.8554 19.1167 20.7119 19.4306C20.5684 19.7446 20.3633 20.0266 20.1088 20.2597C19.8542 20.4929 19.5554 20.6726 19.2301 20.7881C18.9048 20.9035 18.5596 20.9525 18.215 20.932C16.062 20.944 13.908 20.932 11.755 20.932C11.6224 20.932 11.4952 20.8793 11.4015 20.7855C11.3077 20.6918 11.255 20.5646 11.255 20.432C11.255 20.2994 11.3077 20.1722 11.4015 20.0784C11.4952 19.9847 11.6224 19.932 11.755 19.932C13.955 19.932 16.155 19.964 18.355 19.932C19.462 19.916 19.944 19.084 19.944 18.094V5.62999C19.9516 5.31528 19.8628 5.00576 19.6897 4.74287C19.5165 4.47998 19.2671 4.27626 18.975 4.15899C18.6297 4.06486 18.2705 4.03269 17.914 4.06399H11.755C11.6224 4.06399 11.4952 4.01131 11.4015 3.91755C11.3077 3.82378 11.255 3.6966 11.255 3.56399C11.255 3.43138 11.3077 3.30421 11.4015 3.21044C11.4952 3.11667 11.6224 3.06399 11.755 3.06399C13.98 3.06399 16.22 2.97899 18.443 3.06399C18.7833 3.07246 19.1185 3.14857 19.4292 3.28787C19.7398 3.42717 20.0196 3.62688 20.2522 3.87537C20.4849 4.12387 20.6658 4.41617 20.7844 4.73526C20.903 5.05436 20.9569 5.39386 20.943 5.73399L20.944 18.432Z" fill="#F8F8F8"/>
<path d="M15.794 12.354C15.8784 12.2716 15.9278 12.1599 15.932 12.042C15.935 12.0282 15.937 12.0141 15.938 12C15.937 11.9862 15.935 11.9725 15.932 11.959C15.9285 11.8407 15.879 11.7284 15.794 11.646L12.125 7.978C12.0307 7.88692 11.9044 7.83653 11.7733 7.83767C11.6422 7.8388 11.5168 7.89139 11.4241 7.98409C11.3314 8.0768 11.2788 8.2022 11.2777 8.3333C11.2765 8.4644 11.3269 8.5907 11.418 8.685L14.234 11.5H3.492C3.3594 11.5 3.23222 11.5527 3.13845 11.6464C3.04468 11.7402 2.992 11.8674 2.992 12C2.992 12.1326 3.04468 12.2598 3.13845 12.3536C3.23222 12.4473 3.3594 12.5 3.492 12.5H14.234L11.418 15.315C11.3269 15.4093 11.2765 15.5356 11.2777 15.6667C11.2788 15.7978 11.3314 15.9232 11.4241 16.0159C11.5168 16.1086 11.6422 16.1612 11.7733 16.1623C11.9044 16.1635 12.0307 16.1131 12.125 16.022L15.794 12.354Z" fill="#F8F8F8"/>
</svg>
