<svg width="104" height="104" viewBox="0 0 104 104" fill="none" xmlns="http://www.w3.org/2000/svg">
<circle cx="52" cy="52" r="49.5" fill="#152C40" stroke="#D9D7D7" stroke-width="5"/>
<path d="M68.9054 43.3275C67.5094 43.2885 66.3253 42.3427 65.768 41.0622C65.419 40.2601 65.0198 39.5054 64.5706 38.7981C63.7474 37.4599 62.7483 36.3117 61.5735 35.3534C60.4149 34.3955 59.088 33.6522 57.5927 33.1233C56.0974 32.5945 54.4493 32.3049 52.6483 32.2547C49.6954 32.1723 46.989 32.8599 44.529 34.3175C42.0689 35.7752 40.0836 37.9687 38.573 40.8979C37.0624 43.8272 36.2468 47.4497 36.1264 51.7654C36.006 56.0812 36.6263 59.7438 37.9875 62.7532C39.3486 65.7626 41.241 68.0642 43.6645 69.6582C46.0881 71.2521 48.8413 72.0921 51.9239 72.1781C54.7795 72.2578 57.3113 71.7195 59.5193 70.5633C61.744 69.3914 63.4961 67.7029 64.7754 65.4979C66.0408 63.3294 66.7291 60.7656 66.8401 57.8065C66.8442 57.6957 66.9484 57.6156 67.0562 57.6415V57.6415C67.2601 57.6904 67.2203 57.9914 67.0106 57.9856L55.108 57.6534C54.3272 57.6316 53.7119 56.981 53.7337 56.2002L53.769 54.9369C53.8102 53.4584 55.0423 52.2933 56.5208 52.3346L67.4724 52.6402C70.4294 52.7227 72.7596 55.1867 72.6771 58.1437V58.1437C72.5625 62.2485 71.5868 65.7935 69.7499 68.7786C67.9292 71.7642 65.4623 74.0497 62.3492 75.6353C59.2528 77.2051 55.7252 77.9347 51.7664 77.8243C47.3533 77.7011 43.5046 76.5545 40.2203 74.3845C36.9522 72.2149 34.4386 69.1896 32.6796 65.3085C30.9369 61.4279 30.1389 56.8592 30.2855 51.6024C30.3956 47.6599 31.0218 44.1295 32.1642 41.0113C33.3233 37.8774 34.9074 35.2263 36.9164 33.0578C38.9254 30.8894 41.2768 29.2501 43.9707 28.1399C46.6646 27.0298 49.6096 26.5193 52.8059 26.6085C55.4343 26.6819 57.8731 27.1477 60.1224 28.0061C62.3883 28.8487 64.3935 30.0169 66.1379 31.5107C67.899 32.9888 69.352 34.7423 70.4969 36.7715C71.022 37.6943 71.4674 38.661 71.8331 39.6715C72.5211 41.5727 70.9265 43.3839 68.9054 43.3275V43.3275Z" fill="#D9D7D7"/>
<line x1="33.5" y1="85.5" x2="70.5" y2="85.5" stroke="#D9D7D7" stroke-width="3" stroke-linecap="round"/>
<path d="M62 5L92.4672 78.5" stroke="#D9D7D7" stroke-width="3"/>
<path d="M42.7869 5.34416L10.1331 77.6207" stroke="#D9D7D7" stroke-width="3"/>
</svg>
