<svg width="141" height="158" viewBox="0 0 141 158" fill="none" xmlns="http://www.w3.org/2000/svg">
<path d="M118.977 56.274C118.977 85.9672 94.8503 110.048 65.0769 110.048C35.3035 110.048 11.1769 85.9672 11.1769 56.274C11.1769 26.5807 35.3035 2.5 65.0769 2.5C94.8503 2.5 118.977 26.5807 118.977 56.274Z" fill="#152C40" stroke="#D9D7D7" stroke-width="5"/>
<path d="M83.4111 46.8886C81.8978 46.8465 80.6141 45.8217 80.0087 44.4342C79.6304 43.5673 79.1979 42.7516 78.7112 41.987C77.8183 40.5388 76.7348 39.2962 75.4606 38.2591C74.2039 37.2225 72.7647 36.4181 71.1429 35.8458C69.521 35.2735 67.7335 34.9601 65.7802 34.9057C62.5774 34.8165 59.642 35.5607 56.9738 37.1381C54.3056 38.7156 52.1523 41.0893 50.5138 44.2594C48.8754 47.4294 47.9909 51.3496 47.8602 56.0201C47.7296 60.6906 48.4025 64.6542 49.8788 67.9109C51.3551 71.1677 53.4076 73.6585 56.0362 75.3835C58.6649 77.1084 61.6509 78.0174 64.9945 78.1105C68.0916 78.1967 70.8376 77.6143 73.2325 76.363C75.6455 75.0948 77.5458 73.2675 78.9334 70.8812C80.3059 68.5346 81.0523 65.76 81.1727 62.5576C81.1772 62.4378 81.29 62.3511 81.4066 62.379V62.379C81.6274 62.4318 81.5843 62.7578 81.3574 62.7515L68.445 62.3919C67.5998 62.3684 66.9338 61.6642 66.9574 60.819L66.9956 59.4522C67.0404 57.8522 68.3737 56.5913 69.9738 56.6358L81.8715 56.9671C85.0716 57.0562 87.5931 59.7226 87.5037 62.9226V62.9226C87.3794 67.3648 86.3211 71.2011 84.3288 74.4316C82.354 77.6625 79.6784 80.136 76.3019 81.8518C72.9435 83.5507 69.1174 84.3403 64.8236 84.2207C60.0371 84.0875 55.8627 82.8466 52.3005 80.4983C48.7559 78.1504 46.0296 74.8764 44.1218 70.6763C42.2316 66.4768 41.366 61.5326 41.5251 55.8437C41.6445 51.5771 42.3237 47.7566 43.5628 44.3821C44.82 40.9906 46.5381 38.1215 48.717 35.7749C50.896 33.4282 53.4464 31.6542 56.3682 30.4528C59.2901 29.2514 62.4843 28.699 65.951 28.7955C68.8018 28.8749 71.447 29.379 73.8866 30.308C76.3443 31.2198 78.5191 32.4841 80.4111 34.1006C82.3212 35.7001 83.8972 37.5978 85.139 39.7938C85.7069 40.7894 86.1887 41.8323 86.5847 42.9223C87.3335 44.9839 85.6037 46.9496 83.4111 46.8886V46.8886Z" fill="#D9D7D7"/>
<line x1="44.8846" y1="92.6506" x2="85.2693" y2="92.6506" stroke="#D9D7D7" stroke-width="3" stroke-linecap="round"/>
<path d="M75.9231 5.41101L108.968 84.9521" stroke="#D9D7D7" stroke-width="3"/>
<path d="M55.0843 5.78342L19.6674 84.0005" stroke="#D9D7D7" stroke-width="3"/>
</svg>
