<svg width="22" height="22" viewBox="0 0 22 22" fill="none" xmlns="http://www.w3.org/2000/svg">
<g clip-path="url(#clip0_1_22)">
<path d="M11.1316 21.5305C9.28322 21.531 7.47837 21.0443 5.88755 20.1187L0.452183 21.619L1.91066 16.0132C1.07312 14.4626 0.634262 12.7254 0.634151 10.96V10.9554C0.634151 5.12754 5.33968 0.383533 11.1234 0.381042C13.926 0.379925 16.5614 1.47889 18.5441 3.47556C20.5267 5.47189 21.6191 8.12693 21.6204 10.9558C21.6204 16.7844 16.9151 21.528 11.1316 21.5304" fill="url(#paint0_linear_1_22)"/>
<path d="M11.1351 21.908C9.22013 21.9086 7.35073 21.4045 5.70295 20.4459L0.0727367 22L1.58349 16.1931C0.717901 14.5931 0.261528 12.7917 0.260847 10.9587V10.9539C0.260847 4.917 5.13564 0.00257874 11.1264 0C14.0297 -0.00103188 16.7598 1.13747 18.8136 3.20547C20.8671 5.27373 21.9988 8.02373 22 10.9539C22 16.9919 17.1259 21.9056 11.1351 21.908ZM5.98673 18.4499L6.32824 18.6667C7.76626 19.5782 9.42802 20.0593 11.1344 20.0586C16.1138 20.0566 20.165 15.9725 20.165 10.9505C20.1639 8.51847 19.2232 6.23287 17.5164 4.51378C15.8095 2.79477 13.5404 1.84886 11.1271 1.84946C6.14764 1.85169 2.09597 5.93587 2.09597 10.9539V10.9575C2.09682 12.5915 2.53222 14.194 3.355 15.5915L3.5507 15.924L2.65424 19.37L5.98681 18.4499H5.98673Z" fill="url(#paint1_linear_1_22)"/>
<path d="M15.6773 13.6917C16.1295 13.8968 16.1386 14.1126 16.1466 14.3076C16.1534 14.4672 16.1529 14.6498 16.1529 14.8321C16.1529 15.0147 16.0848 15.3112 15.8132 15.5619C15.5413 15.8128 14.8844 16.5199 13.5483 16.5199C12.2121 16.5199 10.9208 15.5391 10.7394 15.4024C10.5584 15.2655 7.72876 13.509 6.64019 10.727C5.73554 8.41492 5.91547 7.94441 5.96083 7.44262C6.00602 6.94075 6.61759 5.82322 7.25175 5.59522C7.88583 5.36706 8.42935 5.36706 8.54293 5.43547C8.65609 5.50387 8.72405 5.6864 8.8598 5.96012C8.99564 6.23391 9.65265 7.57952 9.74329 7.83037C9.83385 8.08131 9.87905 8.26375 9.60712 8.44629C9.33561 8.62882 8.72405 9.15295 8.54293 9.31271C8.36139 9.47229 8.33879 9.63205 8.47463 9.90568C8.61089 10.1796 8.89732 11.061 9.82243 12.1068C10.5423 12.9205 11.4312 13.4698 11.7032 13.6294C11.9747 13.7891 12.1219 13.6465 12.2572 13.5093C12.3789 13.3863 12.5743 13.2355 12.7328 13.0985C12.8914 12.962 13.0046 12.9165 13.1857 12.8252C13.367 12.7339 13.5256 12.7796 13.6614 12.8479C13.7973 12.9165 15.1404 13.4484 15.6773 13.6917Z" fill="white"/>
</g>
<defs>
<linearGradient id="paint0_linear_1_22" x1="-2095.2" y1="-1040.28" x2="21.6204" y2="-1040.28" gradientUnits="userSpaceOnUse">
<stop stop-color="#1FAF38"/>
<stop offset="1" stop-color="#60D669"/>
</linearGradient>
<linearGradient id="paint1_linear_1_22" x1="-2170.73" y1="-1078" x2="22" y2="-1078" gradientUnits="userSpaceOnUse">
<stop stop-color="#F9F9F9"/>
<stop offset="1" stop-color="white"/>
</linearGradient>
<clipPath id="clip0_1_22">
<rect width="22" height="22" fill="white" transform="matrix(0 -1 -1 0 22 22)"/>
</clipPath>
</defs>
</svg>
