<svg width="136" height="29" viewBox="0 0 136 29" fill="none" xmlns="http://www.w3.org/2000/svg">
<path d="M11.7755 6.04826C12.3636 4.18362 15.0023 4.18362 15.5903 6.04826L16.3139 8.3427C16.5764 9.17513 17.3485 9.74117 18.2213 9.74117H20.6869C22.6099 9.74117 23.4249 12.1899 21.8854 13.3423L19.789 14.9116C19.1089 15.4207 18.8246 16.304 19.0801 17.1142L19.8565 19.576C20.4409 21.4292 18.3062 22.9431 16.7506 21.7787L14.8815 20.3795C14.1709 19.8477 13.1949 19.8477 12.4844 20.3795L10.6153 21.7787C9.0597 22.9431 6.92494 21.4292 7.50937 19.576L8.28573 17.1142C8.54125 16.304 8.25699 15.4207 7.57685 14.9116L5.48041 13.3423C3.94098 12.1899 4.75597 9.74117 6.67893 9.74117H9.14455C10.0174 9.74117 10.7894 9.17513 11.0519 8.3427L11.7755 6.04826Z" fill="#E2DA17"/>
<path d="M39.1414 6.04826C39.7294 4.18362 42.3681 4.18362 42.9562 6.04826L43.6798 8.3427C43.9423 9.17513 44.7143 9.74117 45.5872 9.74117H48.0528C49.9757 9.74117 50.7907 12.1899 49.2513 13.3423L47.1548 14.9116C46.4747 15.4207 46.1904 16.304 46.446 17.1142L47.2223 19.576C47.8068 21.4292 45.672 22.9431 44.1164 21.7787L42.2473 20.3795C41.5368 19.8477 40.5608 19.8477 39.8502 20.3795L37.9811 21.7787C36.4255 22.9431 34.2908 21.4292 34.8752 19.576L35.6516 17.1142C35.9071 16.304 35.6228 15.4207 34.9427 14.9116L32.8463 13.3423C31.3068 12.1899 32.1218 9.74117 34.0448 9.74117H36.5104C37.3832 9.74117 38.1553 9.17513 38.4178 8.3427L39.1414 6.04826Z" fill="#E2DA17"/>
<path d="M66.0874 6.25417C66.6644 4.36734 69.3356 4.36734 69.9126 6.25418L70.5462 8.32605C70.8033 9.1669 71.5795 9.74117 72.4587 9.74117H74.7551C76.6631 9.74117 77.4875 12.1584 75.9772 13.3243L73.915 14.9163C73.2561 15.4249 72.9811 16.2884 73.2245 17.0843L73.9624 19.4971C74.5324 21.3613 72.3708 22.8564 70.8277 21.6652L69.2221 20.4258C68.5022 19.87 67.4979 19.87 66.7779 20.4258L65.1724 21.6652C63.6293 22.8564 61.4676 21.3613 62.0377 19.4971L62.7755 17.0843C63.0189 16.2884 62.7439 15.4249 62.0851 14.9163L60.0228 13.3243C58.5125 12.1584 59.337 9.74117 61.2449 9.74117H63.5413C64.4206 9.74117 65.1967 9.1669 65.4538 8.32605L66.0874 6.25417Z" fill="#E2DA17"/>
<path d="M93.0438 6.04826C93.6319 4.18362 96.2706 4.18362 96.8586 6.04826L97.5822 8.3427C97.8447 9.17513 98.6168 9.74117 99.4896 9.74117H101.955C103.878 9.74117 104.693 12.1899 103.154 13.3423L101.057 14.9116C100.377 15.4207 100.093 16.304 100.348 17.1142L101.125 19.576C101.709 21.4292 99.5745 22.9431 98.0189 21.7787L96.1498 20.3795C95.4393 19.8477 94.4632 19.8477 93.7527 20.3795L91.8836 21.7787C90.328 22.9431 88.1933 21.4292 88.7777 19.576L89.554 17.1142C89.8096 16.304 89.5253 15.4207 88.8452 14.9116L86.7487 13.3423C85.2093 12.1899 86.0243 9.74117 87.9472 9.74117H90.4129C91.2857 9.74117 92.0577 9.17513 92.3203 8.3427L93.0438 6.04826Z" fill="#E2DA17"/>
<path d="M120.41 6.04826C120.998 4.18362 123.636 4.18362 124.224 6.04826L124.948 8.3427C125.211 9.17513 125.983 9.74117 126.855 9.74117H129.321C131.244 9.74117 132.059 12.1899 130.52 13.3423L128.423 14.9116C127.743 15.4207 127.459 16.304 127.714 17.1142L128.491 19.576C129.075 21.4292 126.94 22.9431 125.385 21.7787L123.516 20.3795C122.805 19.8477 121.829 19.8477 121.119 20.3795L119.249 21.7787C117.694 22.9431 115.559 21.4292 116.144 19.576L116.92 17.1142C117.175 16.304 116.891 15.4207 116.211 14.9116L114.115 13.3423C112.575 12.1899 113.39 9.74117 115.313 9.74117H117.779C118.652 9.74117 119.424 9.17513 119.686 8.3427L120.41 6.04826Z" fill="#E2DA17"/>
</svg>
